<?xml version="1.0" encoding="UTF-8"?>
<!DOCTYPE svg PUBLIC "-//W3C//DTD SVG 1.1//EN" "http://www.w3.org/Graphics/SVG/1.1/DTD/svg11.dtd">
<!-- Creator: CorelDRAW X8 -->
<svg xmlns="http://www.w3.org/2000/svg" xml:space="preserve" width="86.4818mm" height="86.4818mm" version="1.1" style="shape-rendering:geometricPrecision; text-rendering:geometricPrecision; image-rendering:optimizeQuality; fill-rule:evenodd; clip-rule:evenodd"
viewBox="0 0 3394 3394"
 xmlns:xlink="http://www.w3.org/1999/xlink">
 <defs>
  <style type="text/css">
   <![CDATA[
    .fil1 {fill:#FEFEFE}
    .fil0 {fill:#0099CC}
   ]]>
  </style>
 </defs>
 <g id="Camada_x0020_1">
  <metadata id="CorelCorpID_0Corel-Layer"/>
  <circle class="fil0" cx="1697" cy="1697" r="1697"/>
  <path class="fil1" d="M1052 1399c19,0 39,1 57,3 46,-283 292,-499 588,-499 329,0 595,267 595,595 0,4 0,7 0,10 32,-6 65,-10 99,-10 274,0 496,222 496,496 0,274 -222,496 -496,496l0 0 -1339 0 0 0c-301,0 -546,-244 -546,-545 0,-302 245,-546 546,-546z"/>
 </g>
</svg>
